<svg width="78" height="60" viewBox="0 0 78 60" fill="none" xmlns="http://www.w3.org/2000/svg">
<mask id="mask0_1_98" style="mask-type:alpha" maskUnits="userSpaceOnUse" x="0" y="0" width="78" height="60">
<rect width="78" height="60" rx="10" fill="white"/>
</mask>
<g mask="url(#mask0_1_98)">
<path d="M54.973 41.5772C56.9283 43.4928 56.9286 46.5934 54.973 48.5093L53.7678 49.6901C53.4422 50.0092 52.9143 50.0093 52.5887 49.6901C52.2631 49.371 52.263 48.8538 52.5887 48.5347L53.7939 47.3539C55.0974 46.0769 55.0976 44.0098 53.7939 42.7325L49.1508 38.1832C47.8502 36.9092 45.7343 36.9092 44.4339 38.1832L42.493 40.0848C40.918 41.628 38.3687 41.6282 36.7935 40.0848L28.195 31.6603C26.62 30.1172 26.6198 27.6194 28.195 26.0761L30.1358 24.1745C31.4363 22.9004 31.4363 20.8272 30.1358 19.5531L25.4926 15.0039C24.1892 13.7268 22.0793 13.7267 20.7758 15.0039L19.0806 16.6647C14.5184 21.1347 14.5179 28.3693 19.0806 32.8397L35.5896 49.0147C38.868 52.2266 43.777 53.2343 48.0969 51.582C48.5259 51.4179 49.0093 51.6256 49.1768 52.0458C49.3443 52.4662 49.1323 52.9399 48.7034 53.104C43.7619 54.9941 38.1528 53.8368 34.4105 50.17L17.9013 33.9951C12.6996 28.8986 12.6996 20.6059 17.9013 15.5094L19.5965 13.8486C21.5516 11.933 24.7163 11.9327 26.6718 13.8486L31.315 18.3978C33.2656 20.309 33.2656 23.4187 31.315 25.3299L29.3741 27.2315C28.4509 28.1361 28.4508 29.6003 29.3741 30.505L37.9726 38.9295C38.8937 39.8321 40.3925 39.8321 41.3138 38.9295L43.2546 37.028C45.2052 35.1169 48.3793 35.1168 50.3299 37.028L54.973 41.5772ZM59.8308 6H38.985C36.6861 6 34.8158 7.83244 34.8158 10.0848V18.2544C34.8158 20.5068 36.6861 22.3392 38.985 22.3392H39.8188V24.9943C39.8188 25.4463 40.1933 25.8113 40.6527 25.8113C40.9708 25.8113 40.5475 26.0076 47.011 22.2235C47.4063 21.9921 47.5352 21.4905 47.299 21.1032C47.0629 20.7158 46.5509 20.5895 46.1556 20.8209L41.4865 23.5544V21.5223C41.4865 21.0711 41.1132 20.7053 40.6527 20.7053H38.985C37.6057 20.7053 36.4835 19.6058 36.4835 18.2544V10.0848C36.4835 8.73345 37.6057 7.63392 38.985 7.63392H59.8308C61.2101 7.63392 62.3323 8.73345 62.3323 10.0848V18.2544C62.3323 19.6058 61.2101 20.7053 59.8308 20.7053H51.1451C50.6846 20.7053 50.3113 21.0711 50.3113 21.5223C50.3113 21.9734 50.6846 22.3392 51.1451 22.3392H59.8308C62.1297 22.3392 64 20.5068 64 18.2544V10.0848C64 7.83244 62.1297 6 59.8308 6ZM41.3823 14.9866C42.6467 14.9866 43.6753 13.9787 43.6753 12.7399C43.6753 11.5011 42.6467 10.4933 41.3823 10.4933H39.9231C39.4626 10.4933 39.0892 10.8591 39.0892 11.3102C39.0892 11.7614 39.4626 12.1272 39.9231 12.1272H41.3823C41.7272 12.1272 42.0077 12.402 42.0077 12.7399C42.0077 13.0778 41.7272 13.3526 41.3823 13.3526C40.1179 13.3526 39.0892 14.3605 39.0892 15.5993V17.029C39.0892 17.4801 39.4626 17.8459 39.9231 17.8459H42.8415C43.302 17.8459 43.6753 17.4801 43.6753 17.029C43.6753 16.5778 43.302 16.212 42.8415 16.212H40.7569V15.5993C40.7569 15.2614 41.0374 14.9866 41.3823 14.9866ZM48.6783 17.8459C49.1388 17.8459 49.5121 17.4801 49.5121 17.029C49.5121 16.3349 49.5121 12.007 49.5121 11.3102C49.5121 10.8591 49.1388 10.4933 48.6783 10.4933C48.2178 10.4933 47.8445 10.8591 47.8445 11.3102V13.3526H46.5937V11.3102C46.5937 10.8591 46.2204 10.4933 45.7599 10.4933C45.2994 10.4933 44.9261 10.8591 44.9261 11.3102V14.1696C44.9261 14.6208 45.2994 14.9866 45.7599 14.9866H47.8445V17.029C47.8445 17.4801 48.2177 17.8459 48.6783 17.8459ZM56.8626 17.8461C57.2087 17.8461 57.5323 17.6333 57.6511 17.2946L59.6575 11.5759C59.8434 11.046 59.4409 10.4933 58.869 10.4933H55.9745C55.514 10.4933 55.1406 10.8591 55.1406 11.3102C55.1406 11.7614 55.514 12.1272 55.9745 12.1272H57.7007L56.0741 16.7634C55.887 17.296 56.2937 17.8464 56.8626 17.8461ZM52.3818 17.2249L53.841 11.5062C53.9526 11.0684 53.681 10.6249 53.2343 10.5154C52.7874 10.4062 52.3348 10.6722 52.223 11.1099L50.7638 16.8286C50.6522 17.2664 50.9238 17.7099 51.3706 17.8194C51.818 17.9287 52.2703 17.6622 52.3818 17.2249Z" fill="#9E3040"/>
</g>
</svg>
