<svg width="50" height="48" viewBox="0 0 50 48" fill="none" xmlns="http://www.w3.org/2000/svg">
<path d="M29.9304 43.3125L23.041 38.7198L23.8927 37.4427L29.9304 41.4681L35.968 37.4427L36.8198 38.7198L29.9304 43.3125Z" fill="#9E3040"/>
<path d="M45.1688 11.2376C42.2826 10.8186 39.4627 10.0268 36.7797 8.88239C34.3507 7.85189 32.051 6.54108 29.9266 4.97621C25.4359 8.2757 20.2058 10.4255 14.6928 11.2376L14.4702 9.71879C19.9206 8.91724 25.0788 6.74643 29.4623 3.40984L29.9304 3.0531L30.3909 3.40984C32.5392 5.05153 34.8854 6.41667 37.3748 7.47266C39.9357 8.56537 42.6281 9.3212 45.3838 9.72141L45.1688 11.2376Z" fill="#9E3040"/>
<path d="M35.3025 27.6612H32.2327V26.1263H35.3025C35.7263 26.1263 36.0699 25.7826 36.0699 25.3588C36.0699 24.935 35.7263 24.5914 35.3025 24.5914H33.7676C32.4961 24.5914 31.4653 23.5605 31.4653 22.289C31.4653 21.0172 32.4961 19.9867 33.7676 19.9867H36.8374V21.5216H33.7676C33.3438 21.5216 33.0002 21.8652 33.0002 22.289C33.0002 22.7129 33.3438 23.0565 33.7676 23.0565H35.3025C36.574 23.0565 37.6048 24.087 37.6048 25.3588C37.6048 26.6303 36.574 27.6612 35.3025 27.6612Z" fill="#9E3040"/>
<path d="M33.7676 18.4519H35.3025V20.7542H33.7676V18.4519Z" fill="#9E3040"/>
<path d="M33.7676 26.8938H35.3025V29.1961H33.7676V26.8938Z" fill="#9E3040"/>
<path d="M47.9586 7.91091C44.7281 7.6827 41.5586 6.91713 38.5803 5.6453C35.5993 4.38209 32.8499 2.6306 30.4453 0.462791L29.9304 0L29.4163 0.460542C24.5643 4.81415 18.4045 7.43426 11.9029 7.90941L10.7435 7.98623V13.3123H7.56541C7.17907 11.8152 5.73973 10.8394 4.20634 11.0343C2.67294 11.2291 1.52328 12.5336 1.52328 14.0797C1.52328 15.6255 2.67294 16.9303 4.20634 17.1248C5.73973 17.3196 7.17907 16.3438 7.56541 14.8472H20.4033L22.7056 17.1495H28.3955V20.9867H21.8063L19.5039 18.6844H0V20.2193H12.7288L19.6358 27.1263H28.3955V30.9635H15.709L12.577 27.2027C13.4236 25.8676 13.1425 24.1105 11.922 23.1054C10.7015 22.1004 8.92343 22.1615 7.77526 23.2486C6.62671 24.3353 6.46783 26.1074 7.40428 27.3811C8.34073 28.6552 10.0795 29.0322 11.4596 28.2606L13.7106 30.9635H0V32.4984H22.2998L19.5583 36.3356H9.1003C8.71396 34.8386 7.27462 33.8628 5.74123 34.0577C4.20784 34.2525 3.05817 35.5569 3.05817 37.1031C3.05817 38.6488 4.20784 39.9536 5.74123 40.1481C7.27462 40.343 8.71396 39.3672 9.1003 37.8705H16.4079C17.839 39.5613 19.4987 41.0449 21.3397 42.277L29.9304 48.0006L38.5211 42.2755C45.1466 37.8668 49.1244 30.4336 49.1165 22.4755V7.99073L47.9586 7.91091ZM4.60467 15.6146C3.75704 15.6146 3.06978 14.9273 3.06978 14.0797C3.06978 13.2317 3.75704 12.5448 4.60467 12.5448C5.45231 12.5448 6.13957 13.2317 6.13957 14.0797C6.13957 14.9273 5.45231 15.6146 4.60467 15.6146ZM9.9768 27.1263C9.12916 27.1263 8.4419 26.439 8.4419 25.5914C8.4419 24.7434 9.12916 24.0565 9.9768 24.0565C10.8244 24.0565 11.5117 24.7434 11.5117 25.5914C11.5117 26.439 10.8244 27.1263 9.9768 27.1263ZM6.13957 38.638C5.29193 38.638 4.60467 37.9507 4.60467 37.1031C4.60467 36.2551 5.29193 35.5682 6.13957 35.5682C6.9872 35.5682 7.67446 36.2551 7.67446 37.1031C7.67446 37.9507 6.9872 38.638 6.13957 38.638ZM20.2714 25.5914L14.8992 20.2193H18.8684L21.1707 22.5216H28.3955V25.5914H20.2714ZM47.5816 22.4755C47.5895 29.9206 43.8684 36.8752 37.67 40.9999L29.9304 46.1588L22.1922 41.0014C20.8387 40.0953 19.5871 39.0457 18.4595 37.8705H20.3489L24.1862 32.4984H28.3955V39.4054H29.9304V35.3685C34.7554 37.4812 40.3992 36.0497 43.6335 31.8921C46.8682 27.7345 46.8682 21.9123 43.6335 17.7547C40.3992 13.5974 34.7554 12.1656 29.9304 14.2783V10.2425H28.3955V15.6146H23.3411L21.0388 13.3123H12.2791V9.42182C18.7923 8.88821 24.9705 6.30932 29.9304 2.05464C32.3373 4.12952 35.0526 5.8173 37.9785 7.05728C41.0306 8.36021 44.2735 9.15876 47.5816 9.42182V22.4755ZM34.5351 33.2659C38.1385 33.2644 41.3435 30.9763 42.5153 27.5688C43.6871 24.1614 42.5666 20.386 39.7262 18.1691C36.8857 15.9519 32.9511 15.7821 29.9304 17.7464V15.9983C34.1281 13.7852 39.3039 14.8355 42.3069 18.5094C45.3104 22.1832 45.3104 27.4643 42.3069 31.1381C39.3039 34.812 34.1281 35.8624 29.9304 33.6496V31.9011C31.2993 32.7956 32.9001 33.2696 34.5351 33.2659ZM29.9304 29.9611V19.6864C32.6966 17.2005 36.9345 17.3511 39.5171 20.0274C42.0997 22.7034 42.0997 26.9442 39.5171 29.6201C36.9345 32.2964 32.6966 32.4471 29.9304 29.9611Z" fill="#9E3040"/>
</svg>
