<svg width="43" height="39" viewBox="0 0 43 39" fill="none" xmlns="http://www.w3.org/2000/svg">
<path d="M13.0894 30.8537C12.5731 30.8537 12.1545 31.2723 12.1545 31.7886C12.1545 32.3042 11.735 32.7236 11.2195 32.7236C10.704 32.7236 10.2846 32.3042 10.2846 31.7886C10.2846 31.2731 10.704 30.8537 11.2195 30.8537C11.7359 30.8537 12.1545 30.4351 12.1545 29.9187C12.1545 29.4024 11.7359 28.9838 11.2195 28.9838C9.67286 28.9838 8.41464 30.2421 8.41464 31.7886C8.41464 33.3352 9.67286 34.5935 11.2195 34.5935C12.7662 34.5935 14.0244 33.3352 14.0244 31.7886C14.0244 31.2723 13.6058 30.8537 13.0894 30.8537Z" fill="#9E3040"/>
<path d="M59.8374 18.6992C59.8374 18.4384 59.7305 18.2028 59.5583 18.0333C59.1585 16.9283 58.3485 16.0004 57.2533 15.4528C57.2241 15.4382 57.1943 15.4252 57.1637 15.4137L54.0737 14.2538L52.1914 7.10195C52.1887 7.09167 52.1859 7.08138 52.1828 7.07121C51.5851 5.0787 49.7857 3.73984 47.7052 3.73984H41.1382V1.86992C41.1382 0.838892 40.2993 0 39.2683 0H1.86992C0.838892 0 0 0.838892 0 1.86992V28.0488C0 29.0798 0.838892 29.9187 1.86992 29.9187H4.94839C4.85781 30.2219 4.78851 30.534 4.74258 30.8537H0.934959C0.418628 30.8537 0 31.2723 0 31.7886C0 32.3049 0.418628 32.7236 0.934959 32.7236H4.7427C5.19791 35.891 7.92834 38.3333 11.2195 38.3333C14.5107 38.3333 17.2412 35.891 17.6963 32.7236H19.6341C19.6341 34.2701 20.8924 35.5285 22.439 35.5285H28.0488C29.5954 35.5285 30.8537 34.2701 30.8537 32.7236H42.1411C42.5963 35.891 45.3267 38.3333 48.6179 38.3333C51.9091 38.3333 54.6396 35.891 55.0947 32.7236H58.9024C59.4188 32.7236 59.8374 32.3049 59.8374 31.7886C59.8374 31.2723 59.4188 30.8537 58.9024 30.8537H55.0947C55.0488 30.534 54.9795 30.2219 54.8889 29.9187H57.9675C58.9985 29.9187 59.8374 29.0798 59.8374 28.0488V19.6341C59.8374 19.4144 59.8221 19.1976 59.7926 18.9846C59.8215 18.8946 59.8374 18.7988 59.8374 18.6992ZM57.9675 24.3089H57.0325V23.374H57.9675V24.3089ZM57.2545 17.7642H41.1382V15.8943H53.1231L56.4575 17.146C56.7647 17.3057 57.0323 17.5166 57.2545 17.7642ZM47.7052 5.60976C48.9485 5.60976 50.0247 6.40669 50.3875 7.59444L52.0798 14.0244H41.1382V5.60976H47.7052ZM5.60987 28.0488H1.86992V23.374H30.8541C31.3705 23.374 31.7891 22.9554 31.7891 22.439C31.7891 21.9227 31.3705 21.5041 30.8541 21.5041H1.86992V1.86992H39.2683V28.0488H28.0488H22.439H16.8295C16.7523 28.0488 16.6776 28.0592 16.6057 28.0768C15.4239 26.367 13.4508 25.2439 11.2195 25.2439C8.98823 25.2439 7.01523 26.367 5.83333 28.0768C5.76157 28.0592 5.68701 28.0488 5.60987 28.0488ZM11.2195 36.4634C8.64183 36.4634 6.54472 34.3663 6.54472 31.7886C6.54472 29.2109 8.64183 27.1138 11.2195 27.1138C13.7972 27.1138 15.8943 29.2109 15.8943 31.7886C15.8943 34.3663 13.7972 36.4634 11.2195 36.4634ZM17.6963 30.8537C17.6504 30.534 17.5811 30.2219 17.4905 29.9187H19.795C19.6912 30.2113 19.6341 30.526 19.6341 30.8537H17.6963ZM28.9837 32.7236C28.9837 33.2391 28.5643 33.6585 28.0488 33.6585H22.439C21.9235 33.6585 21.5041 33.2391 21.5041 32.7236V31.7908C21.5041 31.79 21.5042 31.7893 21.5042 31.7886C21.5042 31.7879 21.5041 31.7871 21.5041 31.7864V30.8537C21.5041 30.3381 21.9235 29.9187 22.439 29.9187H28.0488C28.5643 29.9187 28.9837 30.3381 28.9837 30.8537V32.7236ZM30.6928 29.9187H40.2033H42.3468C42.2562 30.2219 42.1869 30.534 42.141 30.8537H30.8537C30.8537 30.526 30.7966 30.2113 30.6928 29.9187ZM48.6179 36.4634C46.0402 36.4634 43.9431 34.3663 43.9431 31.7886C43.9431 29.2109 46.0402 27.1138 48.6179 27.1138C51.1956 27.1138 53.2927 29.2109 53.2927 31.7886C53.2927 34.3663 51.1956 36.4634 48.6179 36.4634ZM54.2276 28.0488C54.1505 28.0488 54.0758 28.0592 54.0041 28.0768C52.8222 26.367 50.8492 25.2439 48.6179 25.2439C46.3866 25.2439 44.4136 26.367 43.2317 28.0768C43.1599 28.0592 43.0854 28.0488 43.0082 28.0488H41.1383V19.6341H57.9676V21.5041H57.0326C56.0016 21.5041 55.1627 22.343 55.1627 23.374V24.3089C55.1627 25.34 56.0016 26.1789 57.0326 26.1789H57.9676V28.0488H54.2276Z" fill="#9E3040"/>
<path d="M23.374 30.8536C23.1274 30.8536 22.8866 30.954 22.7125 31.1271C22.5384 31.3012 22.439 31.5432 22.439 31.7886C22.439 32.0351 22.5384 32.2759 22.7125 32.4501C22.8866 32.6241 23.1274 32.7236 23.374 32.7236C23.6206 32.7236 23.8613 32.6241 24.0355 32.4501C24.2096 32.2759 24.3089 32.0339 24.3089 31.7886C24.3089 31.5431 24.2096 31.3012 24.0355 31.1271C23.8613 30.954 23.6206 30.8536 23.374 30.8536Z" fill="#9E3040"/>
<path d="M34.594 23.3739H36.4634C36.9797 23.3739 37.3984 22.9553 37.3984 22.439C37.3984 21.9227 36.9797 21.504 36.4634 21.504H34.594C34.0776 21.504 33.659 21.9227 33.659 22.439C33.659 22.9553 34.0775 23.3739 34.594 23.3739Z" fill="#9E3040"/>
</svg>
